<svg width="217" height="29" viewBox="0 0 217 29" fill="none" xmlns="http://www.w3.org/2000/svg">
<path d="M7.72 9.44H15.56V12.2H7.72V20.84C7.72 21.7733 7.78667 22.5333 7.92 23.12C8.05333 23.7067 8.26667 24.1867 8.56 24.56C8.88 24.9067 9.28 25.1467 9.76 25.28C10.24 25.4133 10.8267 25.48 11.52 25.48C12.48 25.48 13.2533 25.4 13.84 25.24C14.4267 25.08 14.9867 24.8667 15.52 24.6L16 27.4C15.6267 27.56 15.0267 27.7733 14.2 28.04C13.4 28.3067 12.4 28.44 11.2 28.44C9.81333 28.44 8.68 28.28 7.8 27.96C6.92 27.64 6.22667 27.16 5.72 26.52C5.24 25.88 4.90667 25.0933 4.72 24.16C4.53333 23.2 4.44 22.0933 4.44 20.84V12.2H0.52V9.44H4.44V4.24L7.72 3.68V9.44ZM20.84 28V0.839999L24.16 0.279999V9.72C24.6933 9.50667 25.2933 9.34667 25.96 9.24C26.6267 9.10667 27.28 9.04 27.92 9.04C29.3333 9.04 30.5067 9.25333 31.44 9.68C32.4 10.08 33.16 10.6533 33.72 11.4C34.28 12.1467 34.68 13.04 34.92 14.08C35.16 15.12 35.28 16.2667 35.28 17.52V28H32V18.24C32 15.9467 31.68 14.3333 31.04 13.4C30.4 12.44 29.2533 11.96 27.6 11.96C26.9067 11.96 26.2267 12.04 25.56 12.2C24.92 12.3333 24.4533 12.4667 24.16 12.6V28H20.84ZM46.36 6.56C45.6667 6.56 45.0667 6.32 44.56 5.84C44.0533 5.36 43.8 4.70667 43.8 3.88C43.8 3.05333 44.0533 2.4 44.56 1.92C45.0667 1.44 45.6667 1.2 46.36 1.2C47.08 1.2 47.68 1.44 48.16 1.92C48.6667 2.4 48.92 3.05333 48.92 3.88C48.92 4.70667 48.6667 5.36 48.16 5.84C47.68 6.32 47.08 6.56 46.36 6.56ZM45.52 12.2H40.16V9.44H48.8V20.84C48.8 22.68 49.0533 23.92 49.56 24.56C50.0667 25.1733 50.8267 25.48 51.84 25.48C52.6133 25.48 53.32 25.3867 53.96 25.2C54.6267 25.0133 55.1467 24.8133 55.52 24.6L56 27.4C55.84 27.48 55.6133 27.5867 55.32 27.72C55.0267 27.8267 54.68 27.9333 54.28 28.04C53.9067 28.1467 53.48 28.24 53 28.32C52.5467 28.4 52.0667 28.44 51.56 28.44C50.3867 28.44 49.4133 28.28 48.64 27.96C47.8667 27.64 47.24 27.16 46.76 26.52C46.3067 25.88 45.9867 25.0933 45.8 24.16C45.6133 23.2 45.52 22.0933 45.52 20.84V12.2ZM60.84 9.96C62.04 9.66667 63.2267 9.44 64.4 9.28C65.6 9.12 66.72 9.04 67.76 9.04C70.24 9.04 72.1067 9.68 73.36 10.96C74.64 12.24 75.28 14.2933 75.28 17.12V28H72V17.72C72 16.52 71.8933 15.5467 71.68 14.8C71.4667 14.0533 71.16 13.48 70.76 13.08C70.3867 12.6533 69.92 12.36 69.36 12.2C68.8267 12.04 68.24 11.96 67.6 11.96C67.0667 11.96 66.4933 12 65.88 12.08C65.2933 12.1333 64.72 12.2133 64.16 12.32V28H60.84V9.96ZM87.52 17.8C88.24 18.3333 89.0533 19.0133 89.96 19.84C90.8667 20.64 91.76 21.5067 92.64 22.44C93.5467 23.3733 94.4 24.3333 95.2 25.32C96 26.28 96.64 27.1733 97.12 28H93.2C92.6933 27.1733 92.0667 26.3333 91.32 25.48C90.5733 24.6 89.7733 23.76 88.92 22.96C88.0933 22.16 87.2533 21.4267 86.4 20.76C85.5733 20.0933 84.8267 19.5333 84.16 19.08V28H80.84V0.839999L84.16 0.279999V17.2C85.6267 15.92 87.0933 14.6533 88.56 13.4C90.0267 12.12 91.3467 10.8 92.52 9.44H96.4C95.2533 10.8 93.8667 12.2 92.24 13.64C90.64 15.08 89.0667 16.4667 87.52 17.8ZM108.36 9C110.867 9 112.8 9.78667 114.16 11.36C115.52 12.9067 116.2 15.2667 116.2 18.44V19.6H102.92C103.053 21.52 103.68 22.9867 104.8 24C105.947 24.9867 107.547 25.48 109.6 25.48C110.773 25.48 111.773 25.3867 112.6 25.2C113.427 25.0133 114.053 24.8133 114.48 24.6L114.92 27.4C114.52 27.6133 113.8 27.84 112.76 28.08C111.72 28.32 110.547 28.44 109.24 28.44C107.64 28.44 106.227 28.2 105 27.72C103.8 27.2133 102.8 26.5333 102 25.68C101.2 24.8267 100.6 23.8133 100.2 22.64C99.8 21.44 99.6 20.1467 99.6 18.76C99.6 17.1067 99.8533 15.6667 100.36 14.44C100.867 13.2133 101.533 12.2 102.36 11.4C103.187 10.6 104.12 10 105.16 9.6C106.2 9.2 107.267 9 108.36 9ZM112.84 16.92C112.84 15.3467 112.427 14.1067 111.6 13.2C110.773 12.2667 109.68 11.8 108.32 11.8C107.547 11.8 106.84 11.9467 106.2 12.24C105.587 12.5333 105.053 12.92 104.6 13.4C104.147 13.88 103.787 14.4267 103.52 15.04C103.253 15.6533 103.08 16.28 103 16.92H112.84ZM122.28 28V10.44C125 9.50667 127.747 9.04 130.52 9.04C131.373 9.04 132.187 9.08 132.96 9.16C133.733 9.21333 134.587 9.34667 135.52 9.56L134.92 12.48C134.067 12.24 133.307 12.0933 132.64 12.04C132 11.96 131.293 11.92 130.52 11.92C128.893 11.92 127.24 12.1467 125.56 12.6V28H122.28ZM152.2 28C151.08 25.2533 149.853 22.52 148.52 19.8C147.213 17.0533 145.8 14.3067 144.28 11.56V28H139.84V3.24H143.8C144.547 4.41333 145.293 5.69333 146.04 7.08C146.787 8.44 147.507 9.8 148.2 11.16C148.92 12.52 149.573 13.84 150.16 15.12C150.773 16.4 151.293 17.52 151.72 18.48V3.24H156.16V28H152.2ZM159.24 18.76C159.24 17.1067 159.493 15.6533 160 14.4C160.507 13.1467 161.173 12.1067 162 11.28C162.827 10.4267 163.773 9.78667 164.84 9.36C165.907 8.93333 167 8.72 168.12 8.72C170.893 8.72 173 9.54667 174.44 11.2C175.88 12.8267 176.6 15.2133 176.6 18.36C176.6 18.68 176.587 19.0133 176.56 19.36C176.56 19.7067 176.547 19.9867 176.52 20.2H164.32C164.32 21.4267 164.827 22.4 165.84 23.12C166.853 23.8133 168.16 24.16 169.76 24.16C170.747 24.16 171.68 24.0533 172.56 23.84C173.467 23.6267 174.227 23.4133 174.84 23.2L175.52 27.4C174.667 27.6933 173.76 27.9333 172.8 28.12C171.84 28.3333 170.76 28.44 169.56 28.44C167.96 28.44 166.52 28.24 165.24 27.84C163.987 27.4133 162.907 26.8 162 26C161.12 25.1733 160.44 24.16 159.96 22.96C159.48 21.76 159.24 20.36 159.24 18.76ZM171.84 16.8C171.84 16.2933 171.773 15.8133 171.64 15.36C171.507 14.88 171.293 14.4533 171 14.08C170.707 13.7067 170.333 13.4133 169.88 13.2C169.427 12.96 168.867 12.84 168.2 12.84C167.56 12.84 167 12.9467 166.52 13.16C166.067 13.3733 165.68 13.6667 165.36 14.04C165.067 14.4133 164.827 14.84 164.64 15.32C164.48 15.8 164.373 16.2933 164.32 16.8H171.84ZM187.12 24.28C188.32 24.28 189.24 24.2 189.88 24.04C190.52 23.8533 190.84 23.4933 190.84 22.96C190.84 22.6133 190.733 22.32 190.52 22.08C190.333 21.84 190.053 21.64 189.68 21.48C189.333 21.2933 188.92 21.12 188.44 20.96C187.987 20.8 187.507 20.64 187 20.48C186.28 20.2667 185.547 20.0267 184.8 19.76C184.053 19.4667 183.373 19.1067 182.76 18.68C182.147 18.2533 181.64 17.72 181.24 17.08C180.84 16.4133 180.64 15.5867 180.64 14.6C180.64 13.8 180.787 13.0533 181.08 12.36C181.4 11.64 181.88 11.0133 182.52 10.48C183.187 9.92 184.027 9.49333 185.04 9.2C186.053 8.88 187.267 8.72 188.68 8.72C189.907 8.72 191.04 8.81333 192.08 9C193.147 9.18667 194.067 9.45333 194.84 9.8L194.08 13.96C193.627 13.8267 192.92 13.6133 191.96 13.32C191 13 189.92 12.84 188.72 12.84C187.467 12.84 186.613 13 186.16 13.32C185.733 13.6133 185.52 13.9333 185.52 14.28C185.52 14.5733 185.613 14.84 185.8 15.08C186.013 15.2933 186.28 15.4933 186.6 15.68C186.947 15.8667 187.333 16.0533 187.76 16.24C188.213 16.4 188.693 16.56 189.2 16.72C189.92 16.96 190.667 17.2267 191.44 17.52C192.213 17.8133 192.907 18.1867 193.52 18.64C194.16 19.0667 194.68 19.6267 195.08 20.32C195.48 20.9867 195.68 21.8133 195.68 22.8C195.68 23.5733 195.533 24.3067 195.24 25C194.947 25.6933 194.453 26.2933 193.76 26.8C193.093 27.3067 192.213 27.7067 191.12 28C190.027 28.2933 188.68 28.44 187.08 28.44C185.453 28.44 184.067 28.2533 182.92 27.88C181.773 27.5067 180.853 27.1733 180.16 26.88L180.92 22.76C181.853 23.1333 182.84 23.48 183.88 23.8C184.947 24.12 186.027 24.28 187.12 24.28ZM203.72 13.28H199.44V9.2H203.72V4.48L208.64 3.68V9.2H216.52V13.28H208.64V20.88C208.64 21.5733 208.707 22.1333 208.84 22.56C208.973 22.9867 209.16 23.32 209.4 23.56C209.64 23.8 209.933 23.96 210.28 24.04C210.627 24.12 211.013 24.16 211.44 24.16C211.893 24.16 212.307 24.1467 212.68 24.12C213.08 24.0933 213.453 24.0533 213.8 24C214.173 23.92 214.547 23.8133 214.92 23.68C215.32 23.5467 215.747 23.3733 216.2 23.16L216.88 27.4C215.973 27.7733 214.987 28.04 213.92 28.2C212.88 28.36 211.867 28.44 210.88 28.44C209.733 28.44 208.72 28.3467 207.84 28.16C206.96 27.9733 206.213 27.6133 205.6 27.08C204.987 26.5467 204.52 25.8 204.2 24.84C203.88 23.8533 203.72 22.5733 203.72 21V13.28Z" fill="white"/>
</svg>
